# xmcd CD database file generated by OrangeCD 5.2
#
# Track frame offsets:
#	182
#	13400
#	26772
#
# Disc length: 494 seconds
#
# Revision: 0
# Processed by: cddbd v1.5.1PL0 Copyright (c) Steve Scherf et al.
# Submitted via: OrangeCD 5.2
#
DISCID=2001ec03
DTITLE=Jackie Wilson - Old Gold CD Single
DYEAR=1989
DGENRE=R&B Male 
TTITLE0=I Get The Sweetest Feeling
TTITLE1=Higher And Higher
TTITLE2=Whispers
EXTD=
EXTT0=
EXTT1=
EXTT2=
PLAYORDER=
